<svg class="svg" xmlns="http://www.w3.org/2000/svg" width="24" height="24" viewBox="0 0 153.14 184.27">
    <g transform="translate(-65.16 -48.63)">
        <path class="fill" d="M214.59 210.76a12.35 12.35 0 0 0-9.35-3.83h-127a12.77 12.77 0 0 0-9.36 3.68 12.44 12.44 0 0 0-3.71 9.3 12.61 12.61 0 0 0 3.7 9.3 12.6 12.6 0 0 0 9.36 3.68h127a12.64 12.64 0 0 0 9.36-3.68 12.21 12.21 0 0 0 3.7-9 13.16 13.16 0 0 0-3.7-9.45z"></path><path class="fill" d="M214.59 106.05a12.35 12.35 0 0 0-9.35-3.83h-127a12.77 12.77 0 0 0-9.36 3.68 13.51 13.51 0 0 0 0 18.59 12.6 12.6 0 0 0 9.36 3.67h127a12.63 12.63 0 0 0 9.36-3.67 12.23 12.23 0 0 0 3.7-9 13.16 13.16 0 0 0-3.71-9.44z"></path>
        <path class="fill" d="M113.31 48.64a16 16 0 0 0-11.89 4.77 16.34 16.34 0 0 0-4.67 12 17.07 17.07 0 0 0 4.68 12.15 16.6 16.6 0 0 0 23.62 0 16.8 16.8 0 0 0 4.82-12.14 16.41 16.41 0 0 0-4.82-11.83 15.88 15.88 0 0 0-11.74-4.95z"></path><path class="fill" d="M170.15 82.48a15.85 15.85 0 0 0 11.74-4.94 16.78 16.78 0 0 0 4.82-12.14 16.38 16.38 0 0 0-4.83-11.83 16.8 16.8 0 0 0-23.62-.16 16.34 16.34 0 0 0-4.67 12 17.07 17.07 0 0 0 4.68 12.15 15.7 15.7 0 0 0 11.88 4.92z"></path>
        <path class="fill" d="M214.59 158.4a12.4 12.4 0 0 0-9.35-3.82h-127a12.73 12.73 0 0 0-9.36 3.68 13.51 13.51 0 0 0 0 18.59 12.57 12.57 0 0 0 9.36 3.68h127a12.6 12.6 0 0 0 9.36-3.68 12.21 12.21 0 0 0 3.7-9 13.18 13.18 0 0 0-3.71-9.45z"></path>
    </g>
</svg>